<svg width="28" height="28" viewBox="0 0 28 28" fill="none" xmlns="http://www.w3.org/2000/svg">
<path d="M20.8689 12.7128C22.4964 12.4841 23.7494 11.0888 23.7529 9.39827C23.7529 7.73227 22.5384 6.35093 20.9459 6.0896" stroke="#212121" stroke-width="1.5" stroke-linecap="round" stroke-linejoin="round"/>
<path d="M23.0166 16.6255C24.5928 16.8612 25.6929 17.413 25.6929 18.5505C25.6929 19.3333 25.1749 19.842 24.3373 20.1617" stroke="#212121" stroke-width="1.5" stroke-linecap="round" stroke-linejoin="round"/>
<path fill-rule="evenodd" clip-rule="evenodd" d="M13.8677 17.1079C10.118 17.1079 6.91553 17.6761 6.91553 19.9452C6.91553 22.2132 10.0982 22.7977 13.8677 22.7977C17.6174 22.7977 20.8187 22.2354 20.8187 19.9651C20.8187 17.6947 17.6372 17.1079 13.8677 17.1079Z" stroke="#212121" stroke-width="1.5" stroke-linecap="round" stroke-linejoin="round"/>
<path fill-rule="evenodd" clip-rule="evenodd" d="M13.8679 13.8693C16.3284 13.8693 18.3234 11.8754 18.3234 9.41375C18.3234 6.95325 16.3284 4.95825 13.8679 4.95825C11.4074 4.95825 9.41239 6.95325 9.41239 9.41375C9.40305 11.8661 11.3829 13.8611 13.8352 13.8693H13.8679Z" stroke="#212121" stroke-width="1.5" stroke-linecap="round" stroke-linejoin="round"/>
<path d="M6.86545 12.7128C5.23678 12.4841 3.98495 11.0888 3.98145 9.39827C3.98145 7.73227 5.19595 6.35093 6.78845 6.0896" stroke="#212121" stroke-width="1.5" stroke-linecap="round" stroke-linejoin="round"/>
<path d="M4.71784 16.6255C3.14167 16.8612 2.0415 17.413 2.0415 18.5505C2.0415 19.3333 2.5595 19.842 3.39717 20.1617" stroke="#212121" stroke-width="1.5" stroke-linecap="round" stroke-linejoin="round"/>
</svg>
