<svg width="28" height="28" viewBox="0 0 28 28" fill="none" xmlns="http://www.w3.org/2000/svg">
<path fill-rule="evenodd" clip-rule="evenodd" d="M13.8186 25.2723C9.51143 25.2723 5.83325 24.602 5.83325 21.9178C5.83325 19.2335 9.4881 16.7556 13.8186 16.7556C18.1257 16.7556 21.8039 19.2095 21.8039 21.8938C21.8039 24.5769 18.149 25.2723 13.8186 25.2723Z" stroke="#212121" stroke-width="1.5" stroke-linecap="round" stroke-linejoin="round"/>
<path fill-rule="evenodd" clip-rule="evenodd" d="M13.8102 13.036C16.6367 13.036 18.9276 10.745 18.9276 7.91853C18.9276 5.09202 16.6367 2.80005 13.8102 2.80005C10.9837 2.80005 8.69168 5.09202 8.69168 7.91853C8.68213 10.7355 10.9571 13.0264 13.7741 13.036C13.7868 13.036 13.7985 13.036 13.8102 13.036Z" stroke="#212121" stroke-width="1.5" stroke-linecap="round" stroke-linejoin="round"/>
</svg>
