<svg width="34" height="34" viewBox="0 0 34 34" fill="none" xmlns="http://www.w3.org/2000/svg">
<path fill-rule="evenodd" clip-rule="evenodd" d="M8.88333 0H24.4333C30.1 0 33.3333 3.2 33.3333 8.88333V24.45C33.3333 30.1 30.1167 33.3333 24.45 33.3333H8.88333C3.2 33.3333 0 30.1 0 24.45V8.88333C0 3.2 3.2 0 8.88333 0ZM18.0333 18.05H22.7667C23.5333 18.0333 24.15 17.4167 24.15 16.65C24.15 15.8833 23.5333 15.2667 22.7667 15.2667H18.0333V10.5667C18.0333 9.8 17.4167 9.18333 16.65 9.18333C15.8833 9.18333 15.2667 9.8 15.2667 10.5667V15.2667H10.55C10.1833 15.2667 9.83333 15.4167 9.56667 15.6667C9.31667 15.9333 9.16667 16.2817 9.16667 16.65C9.16667 17.4167 9.78333 18.0333 10.55 18.05H15.2667V22.7667C15.2667 23.5333 15.8833 24.15 16.65 24.15C17.4167 24.15 18.0333 23.5333 18.0333 22.7667V18.05Z" fill="#518FFD"/>
</svg>
