<svg width="33" height="33" viewBox="0 0 33 33" fill="none" xmlns="http://www.w3.org/2000/svg">
<path fill-rule="evenodd" clip-rule="evenodd" d="M8.81833 0H24.1835C29.8467 0 33 2.937 33 7.9695V25.014C33 30.129 29.8467 33 24.1835 33H8.81833C3.245 33 0 30.129 0 25.014V7.9695C0 2.937 3.245 0 8.81833 0ZM9.3132 7.68905V7.67255H14.793C15.5832 7.67255 16.2249 8.25005 16.2249 8.9579C16.2249 9.68555 15.5832 10.263 14.793 10.263H9.3132C8.52304 10.263 7.8832 9.68555 7.8832 8.97605C7.8832 8.26655 8.52304 7.68905 9.3132 7.68905ZM9.3132 17.721H23.6865C24.4749 17.721 25.1165 17.1435 25.1165 16.434C25.1165 15.7245 24.4749 15.1454 23.6865 15.1454H9.3132C8.52304 15.1454 7.8832 15.7245 7.8832 16.434C7.8832 17.1435 8.52304 17.721 9.3132 17.721ZM9.31277 25.2615H23.6861C24.4176 25.1955 24.9694 24.6329 24.9694 23.9745C24.9694 23.298 24.4176 22.737 23.6861 22.671H9.31277C8.76277 22.6215 8.23111 22.8525 7.93777 23.2815C7.64444 23.694 7.64444 24.2385 7.93777 24.6675C8.23111 25.08 8.76277 25.3275 9.31277 25.2615Z" fill="#4E90FC"/>
</svg>
