<svg width="33" height="33" viewBox="0 0 33 33" fill="none" xmlns="http://www.w3.org/2000/svg">
<path d="M32.0684 0.960271C31.243 0.113187 30.0215 -0.202394 28.8826 0.129796L2.32319 7.85321C1.1215 8.18707 0.269754 9.14543 0.0403098 10.3629C-0.194086 11.602 0.624649 13.1749 1.69429 13.8326L9.99884 18.9367C10.8506 19.4599 11.9499 19.3287 12.6548 18.6178L22.1643 9.0491C22.643 8.55081 23.4353 8.55081 23.914 9.0491C24.3927 9.53077 24.3927 10.3114 23.914 10.8097L14.388 20.3801C13.6815 21.0893 13.5494 22.1939 14.0694 23.0509L19.1436 31.4387C19.7378 32.4353 20.7612 33 21.8837 33C22.0158 33 22.1643 33 22.2964 32.9834C23.5839 32.8173 24.6073 31.937 24.987 30.6913L32.8607 4.1659C33.2073 3.03646 32.8937 1.80736 32.0684 0.960271Z" fill="#508DFC"/>
</svg>
