<svg width="33" height="33" viewBox="0 0 33 33" fill="none" xmlns="http://www.w3.org/2000/svg">
<path fill-rule="evenodd" clip-rule="evenodd" d="M22.7375 8.73041C22.7375 13.5767 19.9277 17.4627 16.4235 17.4627C12.9194 17.4627 10.1096 13.5767 10.1096 8.73041C10.1096 3.88225 12.9194 0 16.4235 0C19.9277 0 22.7375 3.88225 22.7375 8.73041ZM16.4236 33C11.2768 33 6.88214 31.878 6.88214 27.3902C6.88214 22.9006 11.2486 21.7378 16.4236 21.7378C21.5703 21.7378 25.965 22.8597 25.965 27.3494C25.965 31.8372 21.5985 33 16.4236 33ZM25.4357 8.88739C25.4357 11.3579 24.8998 13.6594 23.9596 15.5727C23.8629 15.7696 23.9489 16.0352 24.1194 16.076C24.3545 16.1318 24.5976 16.1634 24.8447 16.1726C27.3093 16.2618 29.5214 14.0681 30.1325 10.7654C31.0378 5.85961 28.3798 1.4554 24.9951 1.4554C24.6271 1.4554 24.2752 1.50927 23.9327 1.60586C23.8857 1.62072 23.836 1.65044 23.8092 1.70802C23.7769 1.77861 23.8011 1.87334 23.8333 1.93464C24.8501 3.90549 25.4357 6.30914 25.4357 8.88739ZM29.5173 19.6204C31.1734 20.0681 32.2626 20.982 32.7139 22.3101C33.0954 23.4005 33.0954 24.6655 32.7139 25.754C32.0236 27.814 29.798 28.4753 28.9331 28.6462C28.7545 28.6833 28.6107 28.4697 28.6295 28.2226C29.0714 22.5144 25.5565 19.808 24.6472 19.1857C24.6083 19.1579 24.6002 19.1152 24.6043 19.0892C24.607 19.0706 24.6231 19.0409 24.6526 19.0353C26.6203 18.9851 28.7357 19.3566 29.5173 19.6204ZM8.15566 16.1726C8.40279 16.1634 8.64455 16.1336 8.88094 16.076C9.05151 16.0352 9.13747 15.7696 9.04077 15.5727C8.1006 13.6594 7.5647 11.3579 7.5647 8.88739C7.5647 6.30914 8.15029 3.90549 9.16702 1.93464C9.19925 1.87334 9.22209 1.77861 9.1912 1.70802C9.16433 1.6523 9.1133 1.62072 9.06763 1.60586C8.7238 1.50927 8.3719 1.4554 8.00389 1.4554C4.61927 1.4554 1.96127 5.85961 2.86786 10.7654C3.47897 14.0681 5.69107 16.2618 8.15566 16.1726ZM8.39541 19.0873C8.39944 19.1152 8.39138 19.156 8.35377 19.1857C7.44315 19.808 3.92824 22.5144 4.37012 28.2208C4.38893 28.4697 4.24656 28.6815 4.06793 28.6462C3.20297 28.4753 0.977444 27.814 0.287088 25.754C-0.0956962 24.6636 -0.0956962 23.4005 0.287088 22.3101C0.738371 20.982 1.82629 20.0681 3.48233 19.6185C4.26536 19.3566 6.37941 18.9851 8.3484 19.0353C8.37795 19.0409 8.39272 19.0706 8.39541 19.0873Z" fill="#528EFE"/>
</svg>
