<svg width="20" height="18" viewBox="0 0 20 18" fill="none" xmlns="http://www.w3.org/2000/svg">
<path fill-rule="evenodd" clip-rule="evenodd" d="M0.5 17C0.5 17.5523 0.947715 18 1.5 18H18.5C19.0523 18 19.5 17.5523 19.5 17V16.3155C19.5 15.6252 19.0012 14.8317 18.3859 14.5316L12.7255 11.7705C11.9012 11.3684 11.717 10.479 12.3066 9.78013L12.6681 9.35157C13.4009 8.48286 14 6.8493 14 5.71019V4.00021C14 1.79298 12.2091 0 10 0C7.79536 0 6 1.79067 6 3.99958V5.70929C6 6.8495 6.59632 8.47828 7.33191 9.35014L7.69345 9.77864C8.28626 10.4813 8.09538 11.3685 7.27445 11.7691L1.6141 14.5313C0.998151 14.8319 0.5 15.6304 0.5 16.3155V17ZM10 12L9 15L10 16L11 15L10 12Z" fill="black" fill-opacity="0.9"/>
</svg>
