<svg width="31" height="31" viewBox="0 0 31 31" fill="none" xmlns="http://www.w3.org/2000/svg">
<path fill-rule="evenodd" clip-rule="evenodd" d="M18.5454 6.71675H12.4545L9.87112 10.5917H4.13325V24.2834H26.8666V10.5917H21.1287L18.5454 6.71675ZM19.0293 5.16675C19.2452 5.16675 19.4469 5.27467 19.5666 5.45434L21.9583 9.04175H27.1249C27.8383 9.04175 28.4166 9.62005 28.4166 10.3334V24.5417C28.4166 25.2551 27.8383 25.8334 27.1249 25.8334H3.87492C3.16155 25.8334 2.58325 25.2551 2.58325 24.5417V10.3334C2.58325 9.62005 3.16155 9.04175 3.87492 9.04175H9.04158L11.4332 5.45434C11.553 5.27467 11.7546 5.16675 11.9706 5.16675H19.0293ZM15.4999 20.4084C17.4973 20.4084 19.1166 18.7892 19.1166 16.7917C19.1166 14.7943 17.4973 13.1751 15.4999 13.1751C13.5025 13.1751 11.8833 14.7943 11.8833 16.7917C11.8833 18.7892 13.5025 20.4084 15.4999 20.4084ZM15.4999 21.9584C12.6464 21.9584 10.3333 19.6452 10.3333 16.7917C10.3333 13.9383 12.6464 11.6251 15.4999 11.6251C18.3534 11.6251 20.6666 13.9383 20.6666 16.7917C20.6666 19.6452 18.3534 21.9584 15.4999 21.9584Z" fill="black" fill-opacity="0.9"/>
</svg>
