<svg width="16" height="21" viewBox="0 0 16 21" fill="none" xmlns="http://www.w3.org/2000/svg">
<path fill-rule="evenodd" clip-rule="evenodd" d="M8.06519 19.2432C8.06301 19.2412 8.06086 19.2393 8.05873 19.2375L8.06519 19.2432ZM8.24684 18.9686C8.48293 18.7558 8.74732 18.5078 9.03284 18.2279C9.85063 17.4261 10.6689 16.5335 11.4302 15.5769C13.4693 13.0144 14.7114 10.4871 14.7955 8.23968C14.7985 8.15933 14.8 8.07944 14.8 8C14.8 4.24446 11.7555 1.2 8 1.2C4.24446 1.2 1.2 4.24446 1.2 8C1.2 8.07944 1.20151 8.15933 1.20451 8.23968C1.28861 10.4871 2.53066 13.0144 4.56983 15.5769C5.33111 16.5335 6.14937 17.4261 6.96716 18.2279C7.25268 18.5078 7.51707 18.7558 7.75316 18.9686C7.86349 19.0681 7.94697 19.1414 8 19.187C8.05303 19.1414 8.13651 19.0681 8.24684 18.9686ZM7.26172 20.1345C7.26172 20.1345 0 14.0183 0 8C0 3.58172 3.58172 0 8 0C12.4183 0 16 3.58172 16 8C16 14.0183 8.73828 20.1345 8.73828 20.1345C8.33356 20.506 7.66946 20.502 7.26172 20.1345ZM8 10.8C9.5464 10.8 10.8 9.5464 10.8 8C10.8 6.4536 9.5464 5.2 8 5.2C6.4536 5.2 5.2 6.4536 5.2 8C5.2 9.5464 6.4536 10.8 8 10.8ZM8 12C5.79086 12 4 10.2091 4 8C4 5.79086 5.79086 4 8 4C10.2091 4 12 5.79086 12 8C12 10.2091 10.2091 12 8 12Z" fill="black" fill-opacity="0.9"/>
</svg>
