<svg width="40" height="40" viewBox="0 0 40 40" fill="none" xmlns="http://www.w3.org/2000/svg">
<path d="M20.095 0C21.0748 0 21.5647 0.46832 21.5647 1.40496V8.89807C21.5647 9.83471 21.0748 10.303 20.095 10.303C19.1152 10.303 18.6252 9.83471 18.6252 8.89807V1.40496C18.6252 0.46832 19.1152 0 20.095 0Z" fill="#18D375"/>
<path d="M20.0085 1.54272H26.1682C26.5829 1.54272 26.9806 1.70021 27.2739 1.98053C27.5671 2.26085 27.7319 2.64105 27.7319 3.03749V5.39176C27.732 5.5881 27.6916 5.78254 27.613 5.96395C27.5345 6.14537 27.4193 6.31021 27.2741 6.44908C27.1289 6.58794 26.9565 6.69809 26.7667 6.77324C26.577 6.8484 26.3736 6.88708 26.1682 6.88708H20.0085V1.54272Z" fill="#18D375"/>
<path d="M3.32219 18.3472H36.6778C38.8926 18.3472 40 19.4058 40 21.5229V36.8243C40 38.9415 38.8926 40.0001 36.6778 40.0001H3.32219C1.1074 40.0001 0 38.9415 0 36.8243V21.5229C0 19.4058 1.1074 18.3472 3.32219 18.3472Z" fill="#95ED7C"/>
<path d="M11.0559 13.9334L14.6213 10.513C15.3268 9.83648 16.165 9.29971 17.088 8.93345C18.0109 8.56719 19.0004 8.37866 19.9997 8.37866C20.999 8.37866 21.9885 8.56719 22.9114 8.93345C23.8343 9.29971 24.6726 9.83648 25.3781 10.513L28.9423 13.9334C30.3863 15.3186 31.1971 17.1944 31.1971 19.1499V37.7863C31.1971 38.3728 30.9536 38.9354 30.52 39.3505C30.0864 39.7656 29.4983 39.9992 28.8847 40.0001H11.1164C10.5022 40.0001 9.91314 39.7668 9.47883 39.3517C9.04453 38.9365 8.80054 38.3734 8.80054 37.7863V19.1499C8.80047 17.1943 9.6115 15.3184 11.0559 13.9334Z" fill="#18D375"/>
<path d="M14.9365 19.4216C14.9365 20.7294 15.48 21.9837 16.4474 22.9084C17.4148 23.8332 18.7269 24.3527 20.095 24.3527C21.4631 24.3527 22.7752 23.8332 23.7426 22.9084C24.71 21.9837 25.2535 20.7294 25.2535 19.4216C25.2535 18.1138 24.71 16.8595 23.7426 15.9348C22.7752 15.01 21.4631 14.4905 20.095 14.4905C18.7269 14.4905 17.4148 15.01 16.4474 15.9348C15.48 16.8595 14.9365 18.1138 14.9365 19.4216Z" fill="white"/>
<path d="M17.747 30.248H22.4432C23.0663 30.248 23.6639 30.4847 24.1044 30.9058C24.545 31.327 24.7925 31.8982 24.7925 32.4938V40.0001H15.3977V32.4938C15.3977 31.8982 15.6452 31.327 16.0858 30.9058C16.5264 30.4847 17.1239 30.248 17.747 30.248Z" fill="#95ED7C"/>
</svg>
