<svg width="74" height="325" viewBox="0 0 74 325" fill="none" xmlns="http://www.w3.org/2000/svg">
<path d="M6.60742 15.3237H11.1895V11.0903H7.22168V9.82861H11.1895V5.74463H8.86523C8.5332 6.79606 8.16797 7.78662 7.76953 8.71631C7.23828 8.51709 6.80664 8.36768 6.47461 8.26807C7.42643 6.06559 8.09603 3.96826 8.4834 1.97607L9.79492 2.2417C9.62337 3.01644 9.43799 3.76351 9.23877 4.48291H11.1895V0.930176H12.5508V4.48291H16.4023V5.74463H12.5508V9.82861H16.3027V11.0903H12.5508V15.3237H16.7012V16.5854H6.60742V15.3237ZM6.98926 14.2114L5.99316 15.2241C5.41764 14.6597 4.81999 14.0869 4.2002 13.5059C3.40332 14.7731 2.34635 15.9269 1.0293 16.9673C0.807943 16.6242 0.553385 16.2645 0.265625 15.8882C1.58822 14.8976 2.59814 13.8296 3.29541 12.6841C2.51514 11.9813 1.69889 11.2674 0.84668 10.5425C1.25618 9.12028 1.62695 7.48226 1.95898 5.62842H0.298828V4.3833H2.1665C2.34359 3.29867 2.50684 2.14762 2.65625 0.930176L4.00098 1.11279C3.80729 2.30811 3.62467 3.39827 3.45312 4.3833H6.44141V5.4624C6.19238 8.44515 5.66667 10.7389 4.86426 12.3438C5.58919 12.958 6.29753 13.5806 6.98926 14.2114ZM5.17969 5.62842H3.229C2.8361 7.72021 2.49023 9.24202 2.19141 10.1938C2.77246 10.6366 3.34245 11.0876 3.90137 11.5469C4.60417 10.0085 5.03027 8.03564 5.17969 5.62842ZM23.3916 0.847168L24.6865 1.37842C24.3213 1.8654 23.9505 2.33024 23.5742 2.77295H32.0576V3.95166C29.999 6.30908 27.2819 8.2404 23.9062 9.74561H32.0244V17.2993H30.6963V16.2202H21.9473V17.2993H20.6191V11.0737C19.7559 11.3947 18.8594 11.7101 17.9297 12.02C17.6862 11.5994 17.4316 11.1899 17.166 10.7915C19.6452 10.1164 21.8809 9.29183 23.873 8.31787C23.1868 7.62061 22.4453 6.90674 21.6484 6.17627L22.6445 5.31299C23.5742 6.14307 24.4264 6.91227 25.2012 7.62061C27.1491 6.54704 28.8424 5.31299 30.2812 3.91846H22.5615C21.3109 5.27979 19.8831 6.53597 18.2783 7.68701C17.9684 7.27751 17.6807 6.91781 17.415 6.60791C19.6064 5.18018 21.5986 3.25993 23.3916 0.847168ZM30.6963 10.9409H21.9473V15.0581H30.6963V10.9409ZM34.9878 6.67432C34.9878 6.37549 35.0929 6.12646 35.3032 5.92725C35.5135 5.72803 35.7653 5.62842 36.0586 5.62842C36.3574 5.62842 36.612 5.73079 36.8223 5.93555C37.0326 6.13477 37.1377 6.38102 37.1377 6.67432C37.1377 6.96761 37.0353 7.21663 36.8306 7.42139C36.6258 7.62614 36.3657 7.72852 36.0503 7.72852C35.7515 7.72852 35.4997 7.62614 35.2949 7.42139C35.0902 7.21663 34.9878 6.96761 34.9878 6.67432ZM34.9878 14.145C34.9878 13.8462 35.0902 13.5944 35.2949 13.3896C35.4997 13.1849 35.7542 13.0825 36.0586 13.0825C36.3685 13.0825 36.6258 13.1877 36.8306 13.3979C37.0353 13.6027 37.1377 13.8517 37.1377 14.145C37.1377 14.4328 37.0353 14.6818 36.8306 14.8921C36.6258 15.0968 36.3657 15.1992 36.0503 15.1992C35.7459 15.1992 35.4914 15.0968 35.2866 14.8921C35.0874 14.6818 34.9878 14.4328 34.9878 14.145ZM0.381836 55.3892H8.15137V54.4595L11.3223 52.6665H3.51953V51.4546H13.2646V52.8491L9.49609 55.0239V55.3892H16.6348V56.6011H9.49609V59.1079C9.49609 60.4139 8.83757 61.0669 7.52051 61.0669C6.79004 61.0669 5.93229 61.0558 4.94727 61.0337C4.91406 60.6574 4.84766 60.187 4.74805 59.6226C5.63346 59.7111 6.48014 59.7609 7.28809 59.772C7.86361 59.783 8.15137 59.4787 8.15137 58.8589V56.6011H0.381836V55.3892ZM0.946289 48.6157H16.0869V51.9692H14.7754V49.8276H2.25781V51.9692H0.946289V48.6157ZM11.4551 47.6528C12.1966 46.856 12.8939 45.9982 13.5469 45.0796L14.7422 45.9595C14.0228 46.7785 13.2536 47.6362 12.4346 48.5327L11.4551 47.6528ZM6.74023 45.4116L7.81934 44.7808C8.49447 45.6662 9.11979 46.5682 9.69531 47.4868L8.5 48.1675C8.01302 47.3042 7.42643 46.3856 6.74023 45.4116ZM2.25781 45.9097L3.2373 45.1958C3.91243 45.9373 4.5765 46.7397 5.22949 47.603L4.10059 48.3999C3.48079 47.4591 2.86654 46.6291 2.25781 45.9097ZM19.8555 45.644H31.1279V51.1226H29.8164V50.4419H21.167V51.2056H19.8555V45.644ZM20.1709 56.2026V54.9907L20.8931 53.2808H17.2822V52.0688H33.7344V53.2808H22.2627L21.5488 55.0073H31.46C31.3271 56.2912 31.1999 57.3426 31.0781 58.1616C30.8125 59.9657 29.7721 60.8677 27.957 60.8677C26.6842 60.8677 25.3229 60.8455 23.873 60.8013C23.8066 60.425 23.7126 59.9435 23.5908 59.3569C25.1735 59.4897 26.5514 59.5562 27.7246 59.5562C28.9199 59.5562 29.5951 59.0194 29.75 57.9458C29.8275 57.5031 29.9049 56.922 29.9824 56.2026H20.1709ZM29.8164 46.8394H21.167V49.2466H29.8164V46.8394ZM38.2666 49.6201C38.5599 49.6201 38.8117 49.7225 39.022 49.9272C39.2323 50.132 39.3374 50.3783 39.3374 50.666C39.3374 50.9538 39.235 51.2028 39.0303 51.4131C38.8255 51.6178 38.571 51.7202 38.2666 51.7202C37.9622 51.7202 37.7077 51.6178 37.5029 51.4131C37.2982 51.2028 37.1958 50.9538 37.1958 50.666C37.1958 50.3783 37.3009 50.132 37.5112 49.9272C37.7215 49.7225 37.9733 49.6201 38.2666 49.6201ZM38.2666 57.0991C38.5599 57.0991 38.8117 57.2015 39.022 57.4062C39.2323 57.611 39.3374 57.86 39.3374 58.1533C39.3374 58.4521 39.2323 58.7039 39.022 58.9087C38.8117 59.1079 38.5599 59.2075 38.2666 59.2075C37.9733 59.2075 37.7215 59.1079 37.5112 58.9087C37.3009 58.7039 37.1958 58.4521 37.1958 58.1533C37.1958 57.86 37.3009 57.611 37.5112 57.4062C37.7215 57.2015 37.9733 57.0991 38.2666 57.0991ZM0.365234 98.5093H7.85254V95.5376H1.52734V94.2261H7.85254V91.2295C5.75521 91.3125 3.62467 91.3817 1.46094 91.437C1.39453 90.9722 1.31152 90.5184 1.21191 90.0757C6.86751 89.9871 11.4551 89.7879 14.9746 89.478L15.1904 90.8394C13.2425 90.9611 11.2614 91.069 9.24707 91.1631V94.2261H15.2734V95.5376H9.24707V98.5093H16.7012V99.8208H9.24707V102.875C9.24707 104.22 8.56087 104.901 7.18848 104.917C6.49121 104.917 5.52279 104.912 4.2832 104.901C4.22786 104.392 4.13932 103.888 4.01758 103.39C5.25716 103.479 6.19238 103.523 6.82324 103.523C7.50944 103.523 7.85254 103.152 7.85254 102.411V99.8208H0.365234V98.5093ZM25.9648 91.2212V96.7163C25.9648 100.679 24.9743 103.551 22.9932 105.333C22.6833 104.956 22.3568 104.58 22.0137 104.204C23.7624 102.665 24.6367 100.269 24.6367 97.0151V89.9595H30.8125V102.444C30.8125 102.997 31.0062 103.274 31.3936 103.274H31.7754C32.1296 103.274 32.3564 102.964 32.4561 102.344C32.5667 101.492 32.6442 100.573 32.6885 99.5884C33.0758 99.7765 33.4964 99.9536 33.9502 100.12C33.8506 101.215 33.751 102.112 33.6514 102.809C33.4743 103.982 32.9098 104.569 31.958 104.569H31.0781C30.0156 104.569 29.4844 103.938 29.4844 102.676V91.2212H25.9648ZM17.2158 99.2729C18.4554 97.4246 19.3381 95.4325 19.8638 93.2964H17.3818V92.1675H19.9717V88.897H21.167V92.1675H23.4912V93.2964H21.167V96.0522L21.8311 95.3882C22.6833 96.1629 23.3529 96.7938 23.8398 97.2808L22.9434 98.1938C22.2627 97.4412 21.6706 96.8159 21.167 96.3179V105.083H19.9717V96.1851C19.3796 98.061 18.6436 99.5773 17.7637 100.734C17.5866 100.236 17.404 99.7489 17.2158 99.2729ZM36.8555 89.644H48.1279V95.1226H46.8164V94.4419H38.167V95.2056H36.8555V89.644ZM37.1709 100.203V98.9907L37.8931 97.2808H34.2822V96.0688H50.7344V97.2808H39.2627L38.5488 99.0073H48.46C48.3271 100.291 48.1999 101.343 48.0781 102.162C47.8125 103.966 46.7721 104.868 44.957 104.868C43.6842 104.868 42.3229 104.846 40.873 104.801C40.8066 104.425 40.7126 103.944 40.5908 103.357C42.1735 103.49 43.5514 103.556 44.7246 103.556C45.9199 103.556 46.5951 103.019 46.75 101.946C46.8275 101.503 46.9049 100.922 46.9824 100.203H37.1709ZM46.8164 90.8394H38.167V93.2466H46.8164V90.8394ZM55.2666 93.6201C55.5599 93.6201 55.8117 93.7225 56.022 93.9272C56.2323 94.132 56.3374 94.3783 56.3374 94.666C56.3374 94.9538 56.235 95.2028 56.0303 95.4131C55.8255 95.6178 55.571 95.7202 55.2666 95.7202C54.9622 95.7202 54.7077 95.6178 54.5029 95.4131C54.2982 95.2028 54.1958 94.9538 54.1958 94.666C54.1958 94.3783 54.3009 94.132 54.5112 93.9272C54.7215 93.7225 54.9733 93.6201 55.2666 93.6201ZM55.2666 101.099C55.5599 101.099 55.8117 101.201 56.022 101.406C56.2323 101.611 56.3374 101.86 56.3374 102.153C56.3374 102.452 56.2323 102.704 56.022 102.909C55.8117 103.108 55.5599 103.208 55.2666 103.208C54.9733 103.208 54.7215 103.108 54.5112 102.909C54.3009 102.704 54.1958 102.452 54.1958 102.153C54.1958 101.86 54.3009 101.611 54.5112 101.406C54.7215 101.201 54.9733 101.099 55.2666 101.099ZM5.86035 147.307H10.5254V139.172H6.57422V137.877H10.5254V133.013H11.8535V137.877H16.0703V139.172H11.8535V147.307H16.5684V148.602H5.86035V147.307ZM0.464844 137.479V136.284H5.86035V137.512C5.32357 138.586 4.68717 139.601 3.95117 140.559V149.117H2.65625V142.061C2.04753 142.703 1.389 143.312 0.680664 143.887C0.581055 143.489 0.426107 143.029 0.21582 142.509C1.92025 141.137 3.33138 139.46 4.44922 137.479H0.464844ZM2.1084 133.495L3.27051 132.914C3.68001 133.567 4.11165 134.325 4.56543 135.188L3.33691 135.819C2.90527 134.922 2.49577 134.148 2.1084 133.495ZM4.15039 141.48L5.01367 140.766C5.6888 141.519 6.30306 142.233 6.85645 142.908L5.82715 143.721C5.2959 142.958 4.73698 142.21 4.15039 141.48ZM18.2451 133.727H32.7715V149.216H31.5098V148.403H19.5068V149.233H18.2451V133.727ZM31.5098 134.889H19.5068V147.241H31.5098V134.889ZM20.3203 137.828H26.5293V135.437H27.7578V137.828H30.9453V138.957H27.7578V144.02C27.7578 145.625 26.9941 146.427 25.4668 146.427C24.847 146.427 24.2051 146.416 23.541 146.394C23.4746 146.007 23.3861 145.569 23.2754 145.083C24.0169 145.171 24.6478 145.215 25.168 145.215C26.0755 145.215 26.5293 144.701 26.5293 143.671V139.787C25.1846 141.873 23.1979 143.721 20.5693 145.332C20.359 144.966 20.0768 144.596 19.7227 144.219C22.3014 142.792 24.3047 141.037 25.7324 138.957H20.3203V137.828ZM40.3916 132.847L41.6865 133.378C41.3213 133.865 40.9505 134.33 40.5742 134.773H49.0576V135.952C46.999 138.309 44.2819 140.24 40.9062 141.746H49.0244V149.299H47.6963V148.22H38.9473V149.299H37.6191V143.074C36.7559 143.395 35.8594 143.71 34.9297 144.02C34.6862 143.599 34.4316 143.19 34.166 142.792C36.6452 142.116 38.8809 141.292 40.873 140.318C40.1868 139.621 39.4453 138.907 38.6484 138.176L39.6445 137.313C40.5742 138.143 41.4264 138.912 42.2012 139.621C44.1491 138.547 45.8424 137.313 47.2812 135.918H39.5615C38.3109 137.28 36.8831 138.536 35.2783 139.687C34.9684 139.278 34.6807 138.918 34.415 138.608C36.6064 137.18 38.5986 135.26 40.3916 132.847ZM47.6963 142.941H38.9473V147.058H47.6963V142.941ZM51.2158 144.75C52.4333 142.98 53.3685 141.07 54.0215 139.023H51.2988V137.894H54.0547V135.387C53.3021 135.476 52.5163 135.559 51.6973 135.636C51.6198 135.26 51.5202 134.861 51.3984 134.441C54.0436 134.186 56.1465 133.921 57.707 133.644L58.0225 134.856C57.1592 134.989 56.2295 135.116 55.2334 135.238V137.894H57.3916V138.292C58.3988 136.798 59.3285 134.972 60.1807 132.814L61.4424 133.229C61.1104 133.993 60.7839 134.707 60.4629 135.371H67.2861V136.549C67.0537 137.136 66.6221 138.066 65.9912 139.338C65.6592 139.161 65.2497 138.995 64.7627 138.84C65.2275 137.866 65.5706 137.103 65.792 136.549H59.8652C59.2786 137.689 58.7087 138.658 58.1553 139.455C57.8675 139.145 57.613 138.885 57.3916 138.674V139.023H55.2334V140.783L55.8145 140.251C56.6667 141.048 57.3363 141.735 57.8232 142.31L56.96 143.14C56.3623 142.421 55.7868 141.779 55.2334 141.214V149.266H54.0547V141.961C53.4238 143.544 52.6934 144.922 51.8633 146.095C51.6751 145.63 51.4593 145.182 51.2158 144.75ZM61.6416 137.363H62.9033V147.091C62.9033 148.364 62.2725 149 61.0107 149C60.5016 149 59.8818 148.984 59.1514 148.951C59.096 148.541 59.0296 148.093 58.9521 147.606C59.5498 147.694 60.1917 147.739 60.8779 147.739C61.387 147.739 61.6416 147.457 61.6416 146.892V137.363ZM63.7666 140.534L64.9121 140.019C65.8086 141.569 66.7715 143.528 67.8008 145.896L66.5059 146.527C65.5983 144.335 64.6852 142.338 63.7666 140.534ZM59.2344 140.052L60.4795 140.5C59.738 142.758 58.93 144.795 58.0557 146.61C57.7015 146.433 57.2865 146.256 56.8105 146.079C57.6628 144.33 58.4707 142.321 59.2344 140.052ZM72.2666 137.62C72.5599 137.62 72.8117 137.722 73.022 137.927C73.2323 138.132 73.3374 138.378 73.3374 138.666C73.3374 138.954 73.235 139.203 73.0303 139.413C72.8255 139.618 72.571 139.72 72.2666 139.72C71.9622 139.72 71.7077 139.618 71.5029 139.413C71.2982 139.203 71.1958 138.954 71.1958 138.666C71.1958 138.378 71.3009 138.132 71.5112 137.927C71.7215 137.722 71.9733 137.62 72.2666 137.62ZM72.2666 145.099C72.5599 145.099 72.8117 145.201 73.022 145.406C73.2323 145.611 73.3374 145.86 73.3374 146.153C73.3374 146.452 73.2323 146.704 73.022 146.909C72.8117 147.108 72.5599 147.208 72.2666 147.208C71.9733 147.208 71.7215 147.108 71.5112 146.909C71.3009 146.704 71.1958 146.452 71.1958 146.153C71.1958 145.86 71.3009 145.611 71.5112 145.406C71.7215 145.201 71.9733 145.099 72.2666 145.099ZM5.86035 235.307H10.5254V227.172H6.57422V225.877H10.5254V221.013H11.8535V225.877H16.0703V227.172H11.8535V235.307H16.5684V236.602H5.86035V235.307ZM0.464844 225.479V224.284H5.86035V225.512C5.32357 226.586 4.68717 227.601 3.95117 228.559V237.117H2.65625V230.061C2.04753 230.703 1.389 231.312 0.680664 231.887C0.581055 231.489 0.426107 231.029 0.21582 230.509C1.92025 229.137 3.33138 227.46 4.44922 225.479H0.464844ZM2.1084 221.495L3.27051 220.914C3.68001 221.567 4.11165 222.325 4.56543 223.188L3.33691 223.819C2.90527 222.922 2.49577 222.148 2.1084 221.495ZM4.15039 229.48L5.01367 228.766C5.6888 229.519 6.30306 230.233 6.85645 230.908L5.82715 231.721C5.2959 230.958 4.73698 230.21 4.15039 229.48ZM18.2451 221.727H32.7715V237.216H31.5098V236.403H19.5068V237.233H18.2451V221.727ZM31.5098 222.889H19.5068V235.241H31.5098V222.889ZM20.3203 225.828H26.5293V223.437H27.7578V225.828H30.9453V226.957H27.7578V232.02C27.7578 233.625 26.9941 234.427 25.4668 234.427C24.847 234.427 24.2051 234.416 23.541 234.394C23.4746 234.007 23.3861 233.569 23.2754 233.083C24.0169 233.171 24.6478 233.215 25.168 233.215C26.0755 233.215 26.5293 232.701 26.5293 231.671V227.787C25.1846 229.873 23.1979 231.721 20.5693 233.332C20.359 232.966 20.0768 232.596 19.7227 232.219C22.3014 230.792 24.3047 229.037 25.7324 226.957H20.3203V225.828ZM38.4658 235.091H40.7734V225.911H42.0518V235.091H44.6914V222.956H39.3789V221.727H50.4688V222.956H46.0195V227.953H49.8711V229.181H46.0195V235.091H50.7344V236.32H38.4658V235.091ZM39.4453 230.924C39.4896 231.312 39.5947 231.793 39.7607 232.369C38.4215 233.697 37.4089 234.754 36.7227 235.54L35.7764 234.46C36.1084 233.996 36.2744 233.442 36.2744 232.8V227.604H34.2656V226.409H37.5527V232.883C38.0618 232.396 38.6927 231.743 39.4453 230.924ZM35.876 221.129C37.1709 222.446 38.0785 223.398 38.5986 223.985L37.4365 224.964C36.7393 224.057 35.8815 223.072 34.8633 222.009L35.876 221.129ZM57.2422 237.316C56.9544 236.995 56.5947 236.657 56.1631 236.303C57.5133 235.086 58.4043 233.896 58.8359 232.734C59.2565 231.638 59.4668 229.901 59.4668 227.521V221.677H66.7549V235.125C66.7549 236.442 66.1185 237.1 64.8457 237.1C64.0599 237.1 63.1191 237.083 62.0234 237.05C61.957 236.608 61.874 236.154 61.7744 235.689C62.8701 235.755 63.7555 235.789 64.4307 235.789C65.1058 235.789 65.4434 235.462 65.4434 234.809V231.588H60.4961C60.1862 233.658 59.1016 235.567 57.2422 237.316ZM52.2617 222.208H57.458V233.498H53.5068V234.709H52.2617V222.208ZM60.6538 230.393H65.4434V227.239H60.7783C60.7894 228.379 60.7479 229.43 60.6538 230.393ZM65.4434 222.922H60.7783V226.043H65.4434V222.922ZM56.2129 232.286V228.384H53.5068V232.286H56.2129ZM56.2129 223.42H53.5068V227.206H56.2129V223.42ZM72.2666 225.62C72.5599 225.62 72.8117 225.722 73.022 225.927C73.2323 226.132 73.3374 226.378 73.3374 226.666C73.3374 226.954 73.235 227.203 73.0303 227.413C72.8255 227.618 72.571 227.72 72.2666 227.72C71.9622 227.72 71.7077 227.618 71.5029 227.413C71.2982 227.203 71.1958 226.954 71.1958 226.666C71.1958 226.378 71.3009 226.132 71.5112 225.927C71.7215 225.722 71.9733 225.62 72.2666 225.62ZM72.2666 233.099C72.5599 233.099 72.8117 233.201 73.022 233.406C73.2323 233.611 73.3374 233.86 73.3374 234.153C73.3374 234.452 73.2323 234.704 73.022 234.909C72.8117 235.108 72.5599 235.208 72.2666 235.208C71.9733 235.208 71.7215 235.108 71.5112 234.909C71.3009 234.704 71.1958 234.452 71.1958 234.153C71.1958 233.86 71.3009 233.611 71.5112 233.406C71.7215 233.201 71.9733 233.099 72.2666 233.099ZM2.55664 312.068L2.1748 316.633H3.85156L4.2832 311.039H0.514648V309.91H5.54492L5.03027 316.633H6.07617C5.9987 318.969 5.92676 320.889 5.86035 322.394C5.82715 324.076 5.09668 324.917 3.66895 324.917C3.07129 324.917 2.36849 324.901 1.56055 324.868C1.50521 324.458 1.43327 324.021 1.34473 323.556C2.1416 323.656 2.84993 323.706 3.46973 323.706C4.24447 323.706 4.65397 323.235 4.69824 322.294C4.76465 321.077 4.81999 319.566 4.86426 317.762H0.879883L1.41113 312.068H2.55664ZM6.20898 323.274H12.2021C12.999 321.304 13.7074 319.245 14.3271 317.098L15.5889 317.497C14.9359 319.478 14.2441 321.403 13.5137 323.274H16.4355V324.419H6.20898V323.274ZM12.2354 308.98L11.9199 309.511C13.2591 311.891 14.9193 313.623 16.9004 314.708C16.5462 315.15 16.2529 315.538 16.0205 315.87C14.0726 314.431 12.4844 312.699 11.2559 310.673C10.127 312.677 8.5498 314.475 6.52441 316.069C6.3252 315.781 6.0485 315.432 5.69434 315.023C7.89681 313.496 9.58464 311.481 10.7578 308.98H12.2354ZM7.90234 315.089H14.7422V316.235H7.90234V315.089ZM9.91113 317.214L11.0898 316.899C11.5547 318.559 11.9365 320.009 12.2354 321.249L11.0234 321.597C10.7025 320.07 10.3317 318.609 9.91113 317.214ZM7.05566 317.961L8.21777 317.596C8.76009 319.168 9.21387 320.568 9.5791 321.796L8.35059 322.211C7.98535 320.795 7.55371 319.378 7.05566 317.961ZM0.0996094 320.252C1.38346 319.998 2.7946 319.688 4.33301 319.323C4.32194 319.765 4.32747 320.158 4.34961 320.501C3.08789 320.767 1.75423 321.094 0.348633 321.481L0.0996094 320.252ZM21.4658 323.091H23.7734V313.911H25.0518V323.091H27.6914V310.956H22.3789V309.727H33.4688V310.956H29.0195V315.953H32.8711V317.181H29.0195V323.091H33.7344V324.32H21.4658V323.091ZM22.4453 318.924C22.4896 319.312 22.5947 319.793 22.7607 320.369C21.4215 321.697 20.4089 322.754 19.7227 323.54L18.7764 322.46C19.1084 321.996 19.2744 321.442 19.2744 320.8V315.604H17.2656V314.409H20.5527V320.883C21.0618 320.396 21.6927 319.743 22.4453 318.924ZM18.876 309.129C20.1709 310.446 21.0785 311.398 21.5986 311.985L20.4365 312.964C19.7393 312.057 18.8815 311.072 17.8633 310.009L18.876 309.129ZM34.1992 318.078C35.5495 316.207 36.5262 314.071 37.1294 311.669H34.6807V310.441H40.8896V311.669H38.4077C38.0591 313.058 37.6164 314.353 37.0796 315.554H40.292V324.552H39.1133V323.407H37.0381V324.768H35.8594V317.854C35.5661 318.324 35.2562 318.775 34.9297 319.207C34.7637 318.897 34.5202 318.52 34.1992 318.078ZM43.6289 311.669L43.1973 316.534H47.1069L47.6631 311.072H41.5371V309.876H49.0576L48.3604 316.534H50.1201C50.0316 318.78 49.943 320.728 49.8545 322.377C49.7549 324.027 48.9691 324.851 47.4971 324.851C46.7555 324.851 45.9255 324.834 45.0068 324.801C44.9404 324.392 44.863 323.932 44.7744 323.423C45.6709 323.523 46.4788 323.573 47.1982 323.573C48.0505 323.573 48.5098 323.102 48.5762 322.162C48.6647 320.933 48.7311 319.456 48.7754 317.729H41.8525L42.3672 311.669H43.6289ZM39.1133 316.683H37.0381V322.311H39.1133V316.683ZM40.9561 319.97H47.9619V321.166H40.9561V319.97ZM55.2666 313.62C55.5599 313.62 55.8117 313.722 56.022 313.927C56.2323 314.132 56.3374 314.378 56.3374 314.666C56.3374 314.954 56.235 315.203 56.0303 315.413C55.8255 315.618 55.571 315.72 55.2666 315.72C54.9622 315.72 54.7077 315.618 54.5029 315.413C54.2982 315.203 54.1958 314.954 54.1958 314.666C54.1958 314.378 54.3009 314.132 54.5112 313.927C54.7215 313.722 54.9733 313.62 55.2666 313.62ZM55.2666 321.099C55.5599 321.099 55.8117 321.201 56.022 321.406C56.2323 321.611 56.3374 321.86 56.3374 322.153C56.3374 322.452 56.2323 322.704 56.022 322.909C55.8117 323.108 55.5599 323.208 55.2666 323.208C54.9733 323.208 54.7215 323.108 54.5112 322.909C54.3009 322.704 54.1958 322.452 54.1958 322.153C54.1958 321.86 54.3009 321.611 54.5112 321.406C54.7215 321.201 54.9733 321.099 55.2666 321.099Z" fill="#3F414E"/>
</svg>
