<svg width="58" height="53" viewBox="0 0 58 53" fill="none" xmlns="http://www.w3.org/2000/svg">
<path fill-rule="evenodd" clip-rule="evenodd" d="M53.1667 26.5001C53.1667 38.6964 42.3469 48.5834 29 48.5834C15.6531 48.5834 4.83333 38.6964 4.83333 26.5001C4.83333 14.3038 15.6531 4.41675 29 4.41675C42.3469 4.41675 53.1667 14.3038 53.1667 26.5001ZM42.2375 28.7084C41.627 34.8989 35.9335 39.7501 29 39.7501C22.0665 39.7501 16.373 34.8989 15.7625 28.7084H42.2375ZM20.5417 23.1876C22.5437 23.1876 24.1667 21.7045 24.1667 19.8751C24.1667 18.0456 22.5437 16.5626 20.5417 16.5626C18.5396 16.5626 16.9167 18.0456 16.9167 19.8751C16.9167 21.7045 18.5396 23.1876 20.5417 23.1876ZM41.0833 19.8751C41.0833 21.7045 39.4604 23.1876 37.4583 23.1876C35.4563 23.1876 33.8333 21.7045 33.8333 19.8751C33.8333 18.0456 35.4563 16.5626 37.4583 16.5626C39.4604 16.5626 41.0833 18.0456 41.0833 19.8751Z" fill="black" fill-opacity="0.9"/>
</svg>
