<svg width="40" height="40" viewBox="0 0 40 40" fill="none" xmlns="http://www.w3.org/2000/svg">
<path d="M35.854 5.80518H4.14546C3.04602 5.80518 1.9916 6.29861 1.21418 7.17693C0.436753 8.05524 3.92204e-08 9.2465 3.92204e-08 10.4886V33.3461C-7.48491e-05 33.9612 0.107096 34.5702 0.315391 35.1385C0.523687 35.7068 0.829027 36.2232 1.21398 36.6582C1.59893 37.0932 2.05594 37.4382 2.55893 37.6736C3.06192 37.909 3.60102 38.0302 4.14546 38.0302H15.6028C16.7181 38.0302 17.8095 38.4863 18.6101 39.3637C18.9825 39.7718 19.4809 40.0001 19.9997 40.0001C20.5185 40.0001 21.0169 39.7718 21.3893 39.3637C22.1876 38.4863 23.2813 38.0302 24.3966 38.0302H35.854C36.9536 38.0302 38.0081 37.5367 38.7857 36.6582C39.5632 35.7798 40 34.5884 40 33.3461V10.4886C39.9998 9.24644 39.563 8.05519 38.7855 7.17689C38.0079 6.29859 36.9535 5.80518 35.854 5.80518Z" fill="#34BCF7"/>
<path d="M33.5662 3.00073H33.2041C29.6441 3.00058 26.0888 3.2921 22.5661 3.873L21.9577 3.97285C20.5015 4.21288 19.0218 4.20724 17.5671 3.95611C13.883 3.32018 10.1616 3.00081 6.43477 3.00073C5.33533 3.00073 4.28091 3.49417 3.50349 4.37248C2.72606 5.2508 2.28931 6.44206 2.28931 7.68419V29.3943C2.28871 30.0096 2.39544 30.619 2.60339 31.1877C2.81134 31.7564 3.11645 32.2732 3.50127 32.7086C3.88609 33.144 4.34308 33.4895 4.84613 33.7253C5.34918 33.9611 5.88843 34.0826 6.43306 34.0829H11.5741C14.3435 34.0828 17.0369 35.1056 19.2441 36.9954C19.4607 37.1813 19.7253 37.2819 19.9973 37.2819C20.2694 37.2819 20.5339 37.1813 20.7506 36.9954C22.9588 35.1047 25.6538 34.0818 28.4245 34.0829H33.5656C34.11 34.0829 34.6491 33.9617 35.1521 33.7263C35.6551 33.4909 36.1121 33.1459 36.4971 32.7109C36.882 32.2759 37.1874 31.7596 37.3957 31.1913C37.604 30.623 37.7111 30.0139 37.7111 29.3988V7.6887C37.7116 7.07333 37.6048 6.46388 37.3967 5.89518C37.1886 5.32648 36.8834 4.80967 36.4985 4.37431C36.1136 3.93894 35.6565 3.59354 35.1533 3.35785C34.6502 3.12217 34.1108 3.00082 33.5662 3.00073Z" fill="#C5F4FF"/>
<path d="M19.9854 35.1588V6.62005C19.9847 6.08253 20.1031 5.55336 20.3297 5.08077C20.5564 4.60818 20.8842 4.20719 21.2832 3.91435C23.1706 2.52735 26.9648 0.74931 31.7477 0.025211C32.1052 -0.0287889 32.4688 0.00418824 32.8141 0.121931C33.1594 0.239674 33.4784 0.439461 33.7497 0.707895C34.0211 0.976329 34.2385 1.30721 34.3874 1.67834C34.5363 2.04947 34.6133 2.45228 34.6131 2.85976V28.8481C34.613 29.5599 34.3778 30.2461 33.9535 30.7724C33.5293 31.2987 32.9464 31.6272 32.3191 31.6936C29.3449 32.0086 24.1838 32.9556 21.1879 35.7921C21.0813 35.8935 20.9512 35.9584 20.813 35.979C20.6748 35.9997 20.5342 35.9753 20.4079 35.9088C20.2815 35.8423 20.1746 35.7363 20.0998 35.6035C20.0249 35.4706 19.9852 35.3163 19.9854 35.1588Z" fill="#E9FAFF"/>
<path d="M4.96436 6.61231V16.2962C4.9641 16.4981 5.00883 16.6968 5.09441 16.8741C5.17999 17.0514 5.30367 17.2015 5.45407 17.3105C5.60447 17.4196 5.77675 17.4842 5.95503 17.4983C6.13332 17.5124 6.31189 17.4757 6.47428 17.3913L7.96198 16.6183C8.1071 16.5428 8.26495 16.5038 8.42471 16.5038C8.58446 16.5038 8.74231 16.5428 8.88743 16.6183L10.3751 17.3913C10.5375 17.4757 10.716 17.5125 10.8943 17.4984C11.0726 17.4843 11.2448 17.4197 11.3952 17.3106C11.5456 17.2015 11.6692 17.0514 11.7547 16.8741C11.8402 16.6968 11.8848 16.4981 11.8845 16.2962V6.89706C11.8846 6.60578 11.7911 6.32436 11.6214 6.10505C11.4517 5.88575 11.2174 5.74346 10.9619 5.70461C10.0752 5.57126 8.49912 5.41149 6.03066 5.40698C5.89054 5.40681 5.75177 5.43788 5.62229 5.4984C5.49282 5.55892 5.37518 5.64771 5.27613 5.75968C5.17708 5.87164 5.09855 6.00459 5.04505 6.1509C4.99155 6.29721 4.96413 6.45401 4.96436 6.61231Z" fill="#FF7735"/>
</svg>
