<svg width="94" height="33" viewBox="0 0 94 33" fill="none" xmlns="http://www.w3.org/2000/svg">
<path fill-rule="evenodd" clip-rule="evenodd" d="M81.375 15.25H72.85L73.5759 13.7066C73.6049 13.6449 73.5874 13.5777 73.5289 13.5261C73.429 13.438 73.2409 13.4206 73.1087 13.4872L68.519 15.8006C68.4253 15.8478 68.3702 15.9216 68.3702 16C68.3702 16.1381 68.5381 16.25 68.7452 16.25H81.375V15.25ZM68.625 18.75H77.1492L76.4233 20.2934C76.3943 20.3551 76.4118 20.4223 76.4702 20.4739C76.5701 20.562 76.7583 20.5794 76.8905 20.5128L81.4801 18.1994C81.5739 18.1522 81.629 18.0783 81.629 18C81.629 17.8619 81.4611 17.75 81.254 17.75H80.2492H68.625V18.75Z" fill="black" fill-opacity="0.9"/>
<g style="mix-blend-mode:plus-darker">
<rect width="94" height="33" rx="15" fill="#FFFDFD"/>
<rect x="0.5" y="0.5" width="93" height="32" rx="14.5" stroke="#EDEDED" stroke-opacity="0.9"/>
</g>
<path d="M16.868 11.8184H23.6648C23.532 16.0293 23.4227 18.8496 23.3367 20.2793C23.243 21.584 22.6336 22.2324 21.5086 22.2246C20.8758 22.2246 20.2195 22.2051 19.5398 22.166C19.493 21.791 19.4266 21.4238 19.3406 21.0645C20.0359 21.1816 20.7039 21.2402 21.3445 21.2402C21.9773 21.2402 22.3172 20.873 22.3641 20.1387C22.4969 18.623 22.5984 16.1426 22.6688 12.6973H19.8973C19.8387 14.3027 19.7742 15.6348 19.7039 16.6934C19.5711 19.3105 18.5438 21.2832 16.6219 22.6113C16.4266 22.3848 16.1805 22.1309 15.8836 21.8496C17.7195 20.6621 18.6883 18.9082 18.7898 16.5879C18.868 15.541 18.9227 14.2441 18.9539 12.6973H16.868V11.8184ZM17.5008 17.7715C17.5242 18.2637 17.5555 18.627 17.5945 18.8613C16.6883 19.4316 15.8211 20.002 14.993 20.5723C14.7742 20.7285 14.5789 20.8926 14.407 21.0645L13.7742 20.1855C14.0398 19.9355 14.1727 19.5801 14.1727 19.1191V15.3516L12.7195 15.5098L12.6492 14.6074L14.1727 14.4375V10.9629H15.0867V14.3379L17.4773 14.0684L17.5477 14.9707L15.0867 15.2461V19.2832C15.8992 18.791 16.7039 18.2871 17.5008 17.7715ZM27.6305 18.1816H28.65V15.0117C28.4586 14.8594 28.232 14.6855 27.9703 14.4902C29.0016 13.4199 29.8219 12.2441 30.4313 10.9629L31.3805 11.127C31.193 11.502 30.9938 11.8652 30.7828 12.2168H34.3219V13.002C34.025 13.373 33.5641 13.9199 32.9391 14.6426H35.0367V18.1816H35.9859V18.9902H32.3473C32.9684 20.3457 34.1617 21.2051 35.9273 21.5684C35.6383 21.9121 35.4039 22.2285 35.2242 22.5176C33.6148 21.9785 32.4762 21.0059 31.8082 19.5996C31.3746 20.8105 30.0719 21.8145 27.9 22.6113C27.7281 22.3301 27.5094 22.0449 27.2438 21.7559C29.4938 21.0918 30.7848 20.1699 31.1168 18.9902H27.6305V18.1816ZM24.3141 17.2441C24.7789 17.1074 25.2711 16.9531 25.7906 16.7812V14.0684H24.4195V13.2715H25.7906V11.0918H26.6813V13.2715H28.0055V14.0684H26.6813V16.4707C27.0719 16.334 27.4781 16.1855 27.9 16.0254C27.9078 16.4082 27.9156 16.7168 27.9234 16.9512C27.8531 16.9746 27.4391 17.127 26.6813 17.4082V21.1816C26.6813 21.9785 26.3219 22.3926 25.6031 22.4238C25.2594 22.4395 24.8727 22.4434 24.443 22.4355C24.3961 22.1074 24.3453 21.7832 24.2906 21.4629C24.7203 21.5098 25.0797 21.5332 25.3688 21.5332C25.65 21.5332 25.7906 21.3691 25.7906 21.041V17.7305C25.4 17.875 24.9508 18.041 24.443 18.2285L24.3141 17.2441ZM34.2047 15.4512H32.2359C32.2359 16.4434 32.2105 17.3535 32.1598 18.1816H34.2047V15.4512ZM29.482 18.1816H31.3102C31.3805 17.791 31.4117 16.8809 31.4039 15.4512H29.482V18.1816ZM33.2438 13.0254H30.273C29.8863 13.5957 29.4703 14.1348 29.025 14.6426H31.9313C32.4625 14.0059 32.9 13.4668 33.2438 13.0254ZM36.0258 14.877C37.4867 13.7676 38.6664 12.4434 39.5648 10.9043L40.5141 11.1621C40.3344 11.4551 40.1469 11.7402 39.9516 12.0176H44.6508V12.8496C44.2914 13.2402 43.9164 13.6504 43.5258 14.0801H46.7133V20.9473C46.7133 21.9082 46.2641 22.3887 45.3656 22.3887C44.8656 22.3887 44.2992 22.3809 43.6664 22.3652C43.6195 22.0762 43.5648 21.7559 43.5023 21.4043C44.057 21.4434 44.5609 21.4629 45.0141 21.4629C45.5297 21.4629 45.7875 21.2324 45.7875 20.7715V19.6113H42.518V22.3184H41.5922V19.6113H38.2934C38.0629 20.9434 37.6195 21.9668 36.9633 22.6816C36.7367 22.416 36.5023 22.1543 36.2602 21.8965C37.1273 21.0137 37.5609 19.459 37.5609 17.2324V14.7773C37.2953 15.0234 37.0219 15.2637 36.7406 15.498C36.5297 15.3027 36.2914 15.0957 36.0258 14.877ZM43.4672 12.8379H39.3422C39.0063 13.2676 38.6469 13.6816 38.2641 14.0801H42.4008C42.7914 13.6309 43.1469 13.2168 43.4672 12.8379ZM45.7875 14.9238H42.518V16.4473H45.7875V14.9238ZM42.518 18.791H45.7875V17.2676H42.518V18.791ZM38.4105 18.791H41.5922V17.2676H38.4867C38.4828 17.8105 38.4574 18.3184 38.4105 18.791ZM38.4867 14.9238V16.4473H41.5922V14.9238H38.4867ZM47.6555 14.9004C49.1789 13.7441 50.3859 12.4121 51.2766 10.9043L52.2609 11.1504C52.05 11.4863 51.8254 11.8145 51.5871 12.1348H56.2219V12.9668C55.7844 13.4785 55.3273 13.9902 54.8508 14.502H58.0148V18.7793H57.0773V18.3691H50.0344V20.4434C50.0344 20.9746 50.2805 21.2402 50.7727 21.2402H57.1008C57.6242 21.2402 57.9406 21.0762 58.05 20.748C58.1984 20.2715 58.3039 19.6738 58.3664 18.9551C58.593 19.0566 58.9133 19.1777 59.3273 19.3184C59.218 20.0527 59.1047 20.6191 58.9875 21.0176C58.7844 21.7598 58.2141 22.1309 57.2766 22.1309H50.6672C49.6203 22.1309 49.0969 21.5957 49.0969 20.5254V14.8828C48.8664 15.0898 48.6281 15.2949 48.382 15.498C48.1711 15.3027 47.9289 15.1035 47.6555 14.9004ZM57.0773 15.3457H54.007V17.5254H57.0773V15.3457ZM50.0344 17.5254H53.093V15.3457H50.0344V17.5254ZM55.0383 12.9551H50.9426C50.5012 13.4902 50.0207 14.0059 49.5012 14.502H53.7082C54.177 13.9707 54.6203 13.4551 55.0383 12.9551Z" fill="black"/>
</svg>
